Simulation
nRows=31
nColumns=15
endheader
time  TH_x TH_y TH_z SC_y  SC_z  SC_x  AC_y  AC_z  AC_x  GH_y  GH_z  GH_yy  EL_x  PS_y
5.382082397003745  0.000000  0.000000  0.000000  -35.777237010787964  7.885608270701054  0.9029971929256371  51.90759689422997  15.664624305791461  4.461711423275712  10.477759150956796  80.91799418711052  -13.30637748011749  13.45436814673281  120.000000
5.422247191011236  0.000000  0.000000  0.000000  -35.668072917703576  7.824567131054801  1.4040689246716325  52.019828976809656  15.397924285813257  4.158001348483443  10.401992806089856  80.79930372976982  -13.281802118019668  13.476403884016948  120.000000
5.4624119850187265  0.000000  0.000000  0.000000  -35.4490934350305  7.718800286458018  1.718964090923218  52.152261724817386  15.120790840584709  3.897541960013673  10.33057895172253  80.46335210158077  -13.04721754601955  13.417818777228506  120.000000
5.502576779026217  0.000000  0.000000  0.000000  -35.12027161981415  7.568612551508674  1.8324913556283855  52.30381135698638  14.829987800965887  3.68647339660272  10.26281312813929  79.89164798274908  -12.617356821253097  13.294675316763065  120.000000
5.542741573033708  0.000000  0.000000  0.000000  -34.68367446950107  7.3742063547626415  1.734210863957799  52.47308129765558  14.523242144461394  3.531783382644974  10.1949479493366  79.06472812181042  -12.01311373513741  13.129305875583471  120.000000
5.582906367041199  0.000000  0.000000  0.000000  -34.14402788040237  7.136023683279195  1.4200650227138505  52.65719021988376  14.200367197890252  3.441036837394467  10.120454676286334  77.96445062659765  -11.258375149168172  12.946184617186407  120.000000
5.623071161048689  0.000000  0.000000  0.000000  -33.50917697816114  6.8554725390873354  0.8934928782765492  52.851108963273  13.864261176180737  3.422009369589947  10.03083076930724  76.57649438386431  -10.376813425676266  12.767639222650685  120.000000
5.66323595505618  0.000000  0.000000  0.000000  -32.78974119624282  6.535597443916837  0.16604949163944085  53.04779619272109  13.521436801597506  3.481711183356801  9.91662389035511  74.89234598804798  -9.388947307600304  12.610497118389329  120.000000
5.70340074906367  0.000000  0.000000  0.000000  -31.998462278827237  6.181647560516866  -0.7427382511693227  53.23905254808625  13.181410718972643  3.6253245584421294  9.76880626843284  72.91040387519406  -8.310325376604519  12.484271922941804  120.000000
5.743565543071161  0.000000  0.000000  0.000000  -31.149170152641574  5.801186186087445  -1.8063240961905773  53.41688995811794  12.855405820894184  3.8551253178670106  9.58005361378221  70.63623220339119  -7.15080640371068  12.391307009560467  120.000000
5.7837303370786515  0.000000  0.000000  0.000000  -30.255736427513238  5.403995170216059  -2.992691597099575  53.5750446784  12.554706883764942  4.16982519237703  9.34596519321063  68.08215685073205  -5.91503496482311  12.32814402699601  120.000000
5.823895131086142  0.000000  0.000000  0.000000  -29.331498983912844  5.001516636119983  -4.266400486990168  53.71012159981368  12.289051479578312  4.564399840695217  9.065755012257563  65.26659226611739  -4.603378039767375  12.287686982327552  120.000000
5.864059925093633  0.000000  0.000000  0.000000  -28.389422151719536  4.606042979358394  -5.590733095517174  53.82197117101901  12.065219037069763  5.030380380530334  8.742389277453613  62.21311489851338  -3.2132820526477492  12.261263828736375  120.000000
5.904224719101124  0.000000  0.000000  0.000000  -27.44311631273051  4.22997561881385  -6.9298883183517255  53.913123309267604  11.88656205569491  5.55681468527645  8.381942567664472  58.94999593304378  -1.7403865739621225  12.24039219239288  120.000000
5.944389513108614  0.000000  0.000000  0.000000  -26.50807717905347  3.885790754085243  -8.250141081890504  53.98752415422127  11.753113053908546  6.130587435070796  7.992148617557451  55.51013559729964  -0.17927174008200014  12.218004157363922  120.000000
5.984554307116105  0.000000  0.000000  0.000000  -25.602701775687084  3.5858789424071906  -9.519481134617205  54.04880199494788  11.661336327312869  6.736421460973438  7.580232010579792  51.93038913708986  1.4763581074963312  12.188751267003772  120.000000
6.024719101123596  0.000000  0.000000  0.000000  -24.747860558179852  3.3421054575316482  -10.709070436929704  54.09910833098588  11.605837393723883  7.35736742832578  7.151022447606837  48.25000522702369  3.2338854293597064  12.149530144626146  120.000000
6.064883895131086  0.000000  0.000000  0.000000  -23.963718710856412  3.165553983086832  -11.792745571160552  54.14102583545359  11.580938690018609  7.975243705941222  6.708141164871998  44.50916488841937  5.100313658809366  12.100278839591432  120.000000
6.1050486891385765  0.000000  0.000000  0.000000  -23.266241019319256  3.064016844094153  -12.745765647455347  54.178871573488955  11.58308557857151  8.573192210286932  6.256868136576356  40.74801740609463  7.079590081075275  12.045404518764954  120.000000
6.145213483146067  0.000000  0.000000  0.000000  -22.66737552051951  3.041943027738057  -13.546113034501065  54.2182580831271  11.611481584196063  9.137480460393968  5.802668974759613  37.00458739014554  9.173121851810226  11.99353120106918  120.000000
6.185378277153558  0.000000  0.000000  0.000000  -22.176757712102354  3.1013211577438744  -14.176911981146219  54.26472498007  11.667894178686536  9.655849602943604  5.348344289194778  33.313354122548915  11.381451010013885  11.955810795302485  120.000000
6.225543071161049  0.000000  0.000000  0.000000  -21.80085187545599  3.24104062492419  -14.626884124639732  54.322693323932846  11.756529476786227  10.117970426025666  4.893583516310916  29.704810195686278  13.704456751595817  11.94490511679078  120.000000
6.265707865168539  0.000000  0.000000  0.000000  -21.542124922011777  3.456349244356033  -14.888525936867184  54.39653266749819  11.88140039467623  10.515666082757361  4.436781427194827  26.20529111399665  16.14008984426875  11.97417819825161  120.000000
6.30587265917603  0.000000  0.000000  0.000000  -21.398686764425285  3.7380090584941876  -14.95849918881502  54.49077207300968  12.045353716212194  10.842860120259388  3.9759836725949116  22.836180283355237  18.683498555236795  12.05694019424917  120.000000
6.346037453183521  0.000000  0.000000  0.000000  -21.36398082275831  4.0724412340966705  -14.838768064534515  54.6102903719036  12.249197442614204  11.096695443487139  3.5099790602882655  19.613304710199937  21.326059843866044  12.205269328326844  120.000000
6.386202247191012  0.000000  0.000000  0.000000  -21.427842788097827  4.441131417208717  -14.53672161953424  54.75999227778705  12.490534452550047  11.277193881965252  3.0390962213429833  16.5468053594368  24.053932379384104  12.428769879157633  120.000000
6.426367041198501  0.000000  0.000000  0.000000  -21.576767044273684  4.821835194170393  -14.065554507605007  54.940692569755484  12.762923355079998  11.388535361795636  2.553040186211733  13.640405451909647  26.859386767222947  12.732650858634207  120.000000
6.466531835205992  0.000000  0.000000  0.000000  -21.7956835967773  5.191905496486891  -13.445132263015923  55.149699681910036  13.057083572758254  11.43626324282727  2.015664451868978  10.893073216870109  29.755007357370502  13.116455891068096  120.000000
6.506696629213483  0.000000  0.000000  0.000000  -22.067463003331394  5.53192471750721  -12.702543402179659  55.3851445172469  13.36133864556468  11.423128204047627  1.336056090529788  8.301591432298054  32.80182318007174  13.572975134377542  120.000000
6.546861423220974  0.000000  0.000000  0.000000  -22.37529191123574  5.827108436523468  -11.870302516953211  55.64226482842481  13.66069491608153  11.351613488928432  0.24834698354279025  5.861286889315669  36.23070910792529  14.087399068783917  120.000000
6.587026217228464  0.000000  0.000000  0.000000  -22.707821488230394  6.067330526522595  -10.983511365282515  55.91127060020244  13.939035186350694  11.224442797499012  -2.186417279765582  3.5698200091041805  40.94114001180392  14.637333274971407  120.000000
